<svg width="100" height="100" viewBox="0 0 100 100" fill="none" xmlns="http://www.w3.org/2000/svg">
<path d="M91.9915 23.5696L52.05 0.522667C50.8415 -0.173897 49.3538 -0.173897 48.1453 0.522667L8.20386 23.5696C6.9946 24.2677 6.24997 25.557 6.24997 26.9532V73.047C6.24997 74.4432 6.9946 75.7326 8.20386 76.4306L48.1453 99.4775C49.3538 100.174 50.8415 100.174 52.05 99.4775L91.9915 76.4306C93.2007 75.7326 93.9454 74.4432 93.9454 73.047V26.9532C93.9454 25.557 93.2007 24.2677 91.9915 23.5696ZM86.1329 70.791L50.0977 91.5842L14.0625 70.791V29.2092L50.0977 8.41605L86.1329 29.2092V70.791ZM34.2804 42.9193L27.1988 50.0001L34.2804 57.081C35.8055 58.6068 35.8055 61.0795 34.2804 62.6054C32.7545 64.1305 30.2811 64.1305 28.7559 62.6054L18.9125 52.7619C17.3874 51.2368 17.3874 48.7634 18.9125 47.2383L28.7559 37.3948C30.2811 35.8697 32.7545 35.8697 34.2804 37.3948C35.8055 38.9207 35.8055 41.3934 34.2804 42.9193ZM65.9149 57.081L72.9966 50.0001L65.9149 42.9193C64.3898 41.3934 64.3898 38.9207 65.9149 37.3948C67.4408 35.8697 69.9143 35.8697 71.4394 37.3948L81.2829 47.2383C82.808 48.7634 82.808 51.2368 81.2829 52.7619L71.4394 62.6054C69.9143 64.1305 67.4408 64.1305 65.9149 62.6054C64.3898 61.0795 64.3898 58.6068 65.9149 57.081ZM39.7804 61.9004L53.4271 34.6063C54.3923 32.6768 56.7375 31.894 58.6678 32.8591C60.598 33.8242 61.38 36.1703 60.4149 38.0998L46.7682 65.3947C45.8069 67.3166 43.4647 68.11 41.5268 67.1411C39.5973 66.1767 38.8153 63.8299 39.7804 61.9004Z" fill="url(#paint0_linear)"/>
<defs>
<linearGradient id="paint0_linear" x1="6.24994" y1="50.0001" x2="93.9453" y2="50.0001" gradientUnits="userSpaceOnUse">
<stop stop-color="#E67FEF"/>
<stop offset="1" stop-color="#EA80FC"/>
</linearGradient>
</defs>
</svg>
