<svg width="90" height="90" viewBox="0 0 90 90" fill="none" xmlns="http://www.w3.org/2000/svg">
<path d="M87.9948 21.2124L47.0037 0.470181C45.7634 -0.156727 44.2366 -0.156727 42.9963 0.470181L2.00524 21.2124C0.764198 21.8407 0 23.0011 0 24.2577V65.7421C0 66.9986 0.764198 68.1591 2.00524 68.7874L42.9963 89.5296C44.2366 90.1565 45.7634 90.1565 47.0037 89.5296L87.9948 68.7874C89.2358 68.1591 90 66.9986 90 65.7421V24.2577C90 23.0011 89.2358 21.8407 87.9948 21.2124V21.2124ZM81.9822 63.7117L45 82.4255L8.01782 63.7117V26.2881L45 7.57422L81.9822 26.2881V63.7117ZM28.7671 38.6271L21.4993 44.9999L28.7671 51.3726C30.3322 52.7459 30.3322 54.9714 28.7671 56.3446C27.2011 57.7172 24.6626 57.7172 23.0974 56.3446L12.9953 47.4855C11.4301 46.1129 11.4301 43.8868 12.9953 42.5142L23.0974 33.6551C24.6626 32.2825 27.2011 32.2825 28.7671 33.6551C30.3322 35.0284 30.3322 37.2538 28.7671 38.6271V38.6271ZM61.2329 51.3726L68.5007 44.9999L61.2329 38.6271C59.6677 37.2538 59.6677 35.0284 61.2329 33.6551C62.7989 32.2825 65.3374 32.2825 66.9026 33.6551L77.0047 42.5142C78.5699 43.8868 78.5699 46.1129 77.0047 47.4855L66.9026 56.3446C65.3374 57.7172 62.7989 57.7172 61.2329 56.3446C59.6677 54.9714 59.6677 52.7459 61.2329 51.3726V51.3726ZM34.4116 55.7102L48.417 31.1454C49.4074 29.4089 51.8144 28.7044 53.7953 29.573C55.7763 30.4416 56.5789 32.553 55.5884 34.2896L41.583 58.855C40.5965 60.5847 38.1927 61.2988 36.2039 60.4268C34.2237 59.5588 33.4211 57.4467 34.4116 55.7102V55.7102Z" fill="url(#paint0_linear)"/>
<defs>
<linearGradient id="paint0_linear" x1="-3.00668e-05" y1="44.9998" x2="90" y2="44.9998" gradientUnits="userSpaceOnUse">
<stop stop-color="#E67FEF"/>
<stop offset="1" stop-color="#EA80FC"/>
</linearGradient>
</defs>
</svg>
