<svg width="100" height="87" viewBox="0 0 100 87" fill="none" xmlns="http://www.w3.org/2000/svg">
<path fill-rule="evenodd" clip-rule="evenodd" d="M0 12.7907C0 5.7266 5.7266 0 12.7907 0H87.2093C94.2735 0 100 5.7266 100 12.7907V59.3023C100 66.3665 94.2735 72.093 87.2093 72.093H60.2953L63.7837 79.0698H73.2558C75.1823 79.0698 76.7442 80.6316 76.7442 82.5581C76.7442 84.4846 75.1823 86.0465 73.2558 86.0465H26.7442C24.8176 86.0465 23.2558 84.4846 23.2558 82.5581C23.2558 80.6316 24.8176 79.0698 26.7442 79.0698H36.2161L39.7045 72.093H12.7907C5.7266 72.093 0 66.3665 0 59.3023V12.7907ZM87.2093 65.1163H12.7907C9.57972 65.1163 6.97674 62.5135 6.97674 59.3023V12.7907C6.97674 9.57972 9.57972 6.97674 12.7907 6.97674H87.2093C90.4205 6.97674 93.0233 9.57972 93.0233 12.7907V59.3023C93.0233 62.5135 90.4205 65.1163 87.2093 65.1163Z" fill="#E67FEF"/>
</svg>
