<svg width="95" height="90" viewBox="0 0 95 90" fill="none" xmlns="http://www.w3.org/2000/svg">
<path d="M47.4989 35.9657C42.9169 35.9657 39.1885 40.0071 39.1885 44.9721C39.1885 49.9387 42.9169 53.9785 47.4989 53.9785C52.0828 53.9785 55.8112 49.9387 55.8112 44.9721C55.8112 40.0075 52.0828 35.9657 47.4989 35.9657Z" fill="#E67FEF"/>
<path d="M94.9977 46.0866C95.0614 42.968 93.8236 39.9684 91.32 37.1707C91.32 37.1691 91.32 37.1636 91.32 37.1636C91.32 34.504 89.3233 32.3406 86.867 32.3406C86.4515 32.3406 86.0396 32.4025 85.6406 32.5302C84.1051 31.5699 82.4239 30.6769 80.635 29.8671C79.4428 29.3286 78.0905 28.7898 76.5286 28.2298C79.8695 15.1197 78.6479 5.45981 73.1272 1.62719C67.3417 -2.39861 57.7685 1.1506 47.4989 11.2503C37.2327 1.15614 27.6694 -2.40708 21.8706 1.62719C18.358 4.06521 16.5493 8.89012 16.6181 15.609C15.5192 16.5107 14.8587 17.9161 14.8587 19.4325C14.8587 21.348 15.9019 23.0452 17.4735 23.816C17.6647 24.8295 17.9034 25.9263 18.1981 27.1365C6.75113 30.8929 0.141183 36.9492 0.00227891 43.8574C-0.123697 50.0661 4.97696 55.8279 14.3617 60.0753C15.5604 60.6209 16.9209 61.1614 18.4942 61.723C18.051 63.4365 17.7092 64.9601 17.4524 66.3599C15.4738 77.1701 17.0435 84.9679 21.8727 88.322C27.6895 92.3478 37.2411 88.7862 47.501 78.6937C54.9203 85.9902 62.0029 89.9964 67.5236 90C69.6363 90 71.522 89.4364 73.1312 88.3204C77.9585 84.9679 79.5267 77.1701 77.5481 66.3599C77.3536 65.2986 77.1016 64.1291 76.7844 62.8198C88.2407 59.0602 94.8587 53.0006 94.9977 46.0866ZM24.2876 84.2258C21.2134 82.0924 20.3009 75.7651 21.8492 67.3027C22.0765 66.0641 22.3841 64.691 22.7864 63.1316C27.0512 64.3649 31.715 65.2933 36.6816 65.8921C39.1409 69.3188 41.6839 72.4797 44.2545 75.3113C35.975 83.388 28.1829 86.9261 24.2876 84.2258ZM24.2876 5.71684C28.1715 3.03417 35.975 6.55666 44.2545 14.6347C41.7933 17.3437 39.3601 20.3489 37.0117 23.588C31.8539 23.9903 27.0085 24.7555 22.5786 25.8719C22.3742 25.0037 22.1863 24.1372 22.0146 23.2495C23.0988 22.3494 23.7593 20.9408 23.7593 19.4328C23.7593 17.5121 22.6995 15.8006 21.1364 15.0334C21.1379 11.5923 21.7383 7.48672 24.2876 5.71684ZM24.0964 58.4862C24.9484 55.8142 25.9637 53.0785 27.1282 50.3196C28.2484 52.4778 29.4273 54.6057 30.6489 56.67C31.3879 57.9226 32.1615 59.1771 32.9856 60.4583C29.8314 59.9339 26.8549 59.2745 24.0964 58.4862ZM30.6507 33.2743C29.4225 35.3526 28.2469 37.4701 27.1447 39.5928C25.8823 36.5684 24.79 33.556 23.879 30.59C26.8618 29.8459 30.0458 29.2628 33.3915 28.85C32.4429 30.3118 31.5271 31.793 30.6507 33.2743ZM29.5794 44.9562C31.092 41.8236 32.7207 38.7813 34.4263 35.895C35.9014 33.4003 37.5499 30.8506 39.3289 28.3028C42.1382 28.1327 44.9674 28.0812 47.8357 28.1523C50.5404 28.2161 53.2583 28.3826 55.914 28.6536C57.6001 31.0864 59.1665 33.5173 60.573 35.8934C62.2771 38.7781 63.9073 41.8256 65.4184 44.9565C63.8892 48.1353 62.2606 51.1916 60.573 54.0479C59.0899 56.555 57.4447 59.1048 55.672 61.6386C52.8641 61.8051 50.0383 61.8549 47.1619 61.7875C44.4638 61.7272 41.7491 61.5588 39.0835 61.2877C37.3941 58.8533 35.831 56.4185 34.4263 54.0479C32.7406 51.1969 31.1116 48.1402 29.5794 44.9562ZM61.6052 61.0942C62.5552 59.6254 63.4758 58.1457 64.3475 56.67C65.5705 54.6004 66.7512 52.4726 67.8681 50.3163C69.1468 53.3603 70.2524 56.3814 71.16 59.3423C68.1658 60.0932 64.9656 60.6795 61.6052 61.0942ZM64.3475 33.2743C63.6 32.0093 62.8267 30.7548 62.0089 29.4843C65.1421 30.0052 68.1087 30.6626 70.8672 31.4493C70.0151 34.116 69.0061 36.8446 67.8534 39.5944C66.7545 37.4773 65.5804 35.3618 64.3475 33.2743ZM72.1772 26.802C67.9105 25.5706 63.2549 24.6493 58.3163 24.0522C55.8569 20.6255 53.3154 17.4646 50.7433 14.6366C59.0228 6.55862 66.833 3.03612 70.7118 5.7188C74.3684 8.25748 74.8999 16.0944 72.1772 26.802ZM47.934 23.2935C47.069 23.2739 46.207 23.2635 45.3534 23.2635C44.5783 23.2635 43.8081 23.2707 43.0444 23.2883C44.508 21.4314 45.9977 19.6684 47.5022 18.0187C49.0671 19.7391 50.6125 21.5676 52.117 23.4867C50.642 23.3893 49.2569 23.3274 47.934 23.2935ZM19.4617 31.8569C20.729 36.0136 22.4331 40.4202 24.5311 44.9829C22.6177 49.154 21.0299 53.215 19.8069 57.0776C18.3908 56.5707 17.1692 56.0801 16.0883 55.5927C8.74088 52.267 4.4024 47.9206 4.48418 43.9623C4.57407 39.3996 10.1489 34.9151 19.4617 31.8569ZM47.0672 66.6492C48.7139 66.6863 50.3491 66.6899 51.9568 66.6544C50.4932 68.5113 49.0019 70.2759 47.4989 71.9292C45.9388 70.2157 44.3934 68.3871 42.8826 66.4576C44.3772 66.555 45.7443 66.6173 47.0672 66.6492ZM57.9861 66.3586C63.1454 65.9582 68.0022 65.1891 72.4505 64.0659C72.74 65.2653 72.9706 66.3303 73.1504 67.3049C74.6991 75.7638 73.7899 82.0911 70.7154 84.2261C66.8234 86.9264 59.0246 83.3827 50.7451 75.3139C53.203 72.6077 55.6329 69.6045 57.9861 66.3586ZM75.5 58.0962C74.2162 53.874 72.5271 49.4726 70.4649 44.9793C72.3717 40.8349 73.9646 36.7704 75.2009 32.8723C76.6251 33.3844 77.8238 33.8626 78.908 34.3519C80.1819 34.9314 81.3887 35.5533 82.5105 36.2071C82.4482 36.5225 82.4173 36.8414 82.4173 37.1623C82.4173 39.8202 84.4157 41.9836 86.867 41.9836C87.557 41.9836 88.2308 41.8083 88.8393 41.4767C89.9824 43.0094 90.5449 44.5206 90.514 45.9827C90.4271 50.5483 84.8394 55.0347 75.5 58.0962Z" fill="#E67FEF"/>
</svg>
