<svg width="137" height="137" viewBox="0 0 137 137" fill="none" xmlns="http://www.w3.org/2000/svg">
<g clip-path="url(#clip0)">
<path d="M91.2915 23.9418C85.1396 20.747 76.9979 22.6452 68.3337 29.2563C68.0253 29.4862 67.7087 29.7469 67.4003 29.9768C67.0843 29.7441 66.7683 29.5114 66.4329 29.2899C57.4831 23.0917 49.2759 21.5506 43.2818 25.0113C37.2877 28.4719 34.4993 36.3613 35.4117 47.2C35.4552 47.59 35.4793 47.9913 35.5228 48.3813C35.1388 48.5252 34.7855 48.6773 34.4322 48.8293C24.3635 53.0078 18.66 59.1291 18.3508 66.0542C18.0416 72.9792 23.1689 79.568 32.7967 84.6482C34.0651 85.3171 35.3919 85.9523 36.7659 86.5343C36.5941 88.0346 36.4696 89.4818 36.4146 90.9147C35.9892 101.773 39.1539 109.547 45.2946 112.722C50.3039 115.331 56.6305 114.559 63.5003 110.592C65.135 109.649 66.7218 108.577 68.233 107.419C68.5414 107.189 68.8579 106.928 69.1663 106.698C69.4823 106.931 69.7983 107.164 70.1338 107.385C79.0836 113.584 87.2908 115.125 93.2849 111.664C99.2789 108.203 102.067 100.314 101.155 89.4753C101.111 89.0853 101.087 88.684 101.044 88.294C101.428 88.1501 101.781 87.998 102.134 87.8459C103.893 87.1162 105.595 86.2891 107.249 85.3341C114.119 81.3678 117.951 76.275 118.196 70.6324C118.506 63.7073 113.378 57.1186 103.751 52.0383C102.482 51.3694 101.155 50.7343 99.7814 50.1523C99.9531 48.6519 100.078 47.2047 100.133 45.7718C100.594 34.8406 97.4404 27.0864 91.2915 23.9418ZM39.9087 46.8092C39.1527 37.9043 41.2086 31.3979 45.5485 28.8923C49.8883 26.3867 56.5623 27.8788 63.8849 32.9665C63.8961 32.986 63.8962 32.986 63.9268 32.9942C60.3741 36.3688 57.1434 40.0764 54.2706 44.0444C49.3866 44.5288 44.5716 45.4924 39.8727 46.8819C39.9117 46.8594 39.9004 46.8399 39.9087 46.8092ZM85.8164 58.189C87.6142 61.3028 89.2255 64.4982 90.6812 67.7836C89.3916 71.123 87.8984 74.4242 86.2568 77.6035C84.3445 81.3025 82.203 84.8742 79.8406 88.288C75.6917 88.6075 71.539 88.6957 67.3794 88.5024C63.7859 88.3456 60.211 87.9964 56.663 87.424C52.4088 81.6286 48.802 75.3815 45.9101 68.7996C48.7182 61.5735 52.3724 54.6893 56.7814 48.3034C60.9191 47.9644 65.083 47.8957 69.2426 48.089C72.8362 48.2458 76.4111 48.5951 79.9591 49.1674C82.057 52.082 84.0187 55.0752 85.8164 58.189ZM86.2444 50.3909C89.1741 51.0608 92.0544 51.9148 94.8853 52.953C94.3577 55.9044 93.6572 58.8258 92.7837 61.7174C91.8218 59.7817 90.7903 57.8602 89.6892 55.953C88.5881 54.0458 87.4398 52.1918 86.2444 50.3909ZM93.0743 73.7713C94.3954 77.4976 95.4297 81.3116 96.116 85.1969C92.7062 86.2573 89.22 87.0505 85.6881 87.5847C87.2879 85.0522 88.8203 82.403 90.2463 79.6595C91.2579 77.7262 92.1968 75.757 93.0743 73.7713ZM76.3078 93.0004C74.0904 95.8115 71.6604 98.4341 69.0259 100.837C66.0043 98.3004 63.2185 95.4976 60.6519 92.4904C62.7908 92.7345 64.9657 92.906 67.1653 92.9854C70.2655 93.1416 73.3259 93.1391 76.3078 93.0004ZM50.3387 86.223C47.4091 85.5531 44.5287 84.6991 41.6978 83.6609C42.2254 80.7095 42.9147 77.7686 43.7994 74.8965C44.7613 76.8322 45.7928 78.7537 46.8939 80.6609C47.995 82.5681 49.1433 84.4221 50.3387 86.223ZM43.5283 62.8314C42.2072 59.1051 41.1729 55.291 40.4866 51.4058C43.8963 50.3453 47.3825 49.5521 50.9145 49.018C49.3147 51.5504 47.7823 54.1996 46.3563 56.9431C45.3447 58.8765 44.4058 60.8457 43.5283 62.8314ZM69.4066 43.6091C66.3176 43.4723 63.2459 43.4553 60.2447 43.6053C62.462 40.7941 64.892 38.1716 67.5265 35.7683C70.5286 38.3165 73.334 41.1081 75.9005 44.1153C73.7923 43.8794 71.6174 43.7079 69.4066 43.6091ZM34.8916 80.6363C26.9905 76.4793 22.6078 71.2252 22.8307 66.2182C23.0136 62.2203 26.1515 58.3069 31.6006 55.1608C33.0602 54.3181 34.576 53.5727 36.1479 52.9247L36.1868 52.9022C37.2509 58.3857 38.8914 63.744 41.0522 68.8798C39.4934 73.1011 38.2947 77.4519 37.4419 81.8625C36.5846 81.5012 35.7242 81.0897 34.8916 80.6363ZM65.4993 103.808C64.152 104.845 62.7486 105.785 61.289 106.628C55.8204 109.785 50.8931 110.554 47.3281 108.694C42.8804 106.383 40.5216 99.9608 40.8721 91.0398C40.907 90.1115 40.9696 89.1412 41.0629 88.1792C45.3089 89.6459 49.6956 90.772 54.1114 91.5439C57.49 96.0025 61.2989 100.083 65.5157 103.746C65.5382 103.785 65.5187 103.796 65.4993 103.808ZM96.6939 89.7934C97.4499 98.6983 95.394 105.205 91.0541 107.71C86.7143 110.216 80.0403 108.724 72.7177 103.636C72.7064 103.617 72.7064 103.617 72.6757 103.608C76.2285 100.234 79.4592 96.5263 82.332 92.5583C87.216 92.0738 92.031 91.1103 96.7298 89.7208C96.6909 89.7433 96.7021 89.7627 96.6939 89.7934ZM101.711 55.9664C109.612 60.1233 113.995 65.3775 113.772 70.3845C113.549 75.3915 108.715 80.2323 100.463 83.6473L100.424 83.6698C99.3599 78.1863 97.7194 72.828 95.5586 67.6922C97.1174 63.4708 98.3161 59.12 99.1689 54.7095C100.018 55.1015 100.878 55.513 101.711 55.9664ZM82.4298 45.0423C79.0512 40.5837 75.2423 36.5033 71.0255 32.84L71.0644 32.8175C78.1396 27.4093 84.7571 25.6126 89.2048 27.923C93.6525 30.2334 96.0113 36.6561 95.6608 45.5771C95.6259 46.5054 95.5634 47.4757 95.4701 48.4377C91.2323 46.9403 86.865 45.803 82.4298 45.0423Z" fill="#E67FEF"/>
<path d="M63.8631 60.614C59.6205 63.0635 58.1646 68.4969 60.6141 72.7394C63.0635 76.982 68.4969 78.4379 72.7395 75.9884C76.982 73.539 78.4379 68.1056 75.9885 63.863C73.539 59.6205 68.1056 58.1646 63.8631 60.614ZM70.5035 72.1156C68.4017 73.3291 65.7003 72.6053 64.4869 70.5035C63.2734 68.4017 63.9972 65.7003 66.099 64.4868C68.2008 63.2733 70.9022 63.9972 72.1157 66.099C73.3097 68.212 72.6053 70.9022 70.5035 72.1156Z" fill="#E67FEF"/>
</g>
<defs>
<clipPath id="clip0">
<rect width="100" height="100" fill="white" transform="translate(0 50) rotate(-30)"/>
</clipPath>
</defs>
</svg>
