<svg width="95" height="90" viewBox="0 0 95 90" fill="none" xmlns="http://www.w3.org/2000/svg">
<path fill-rule="evenodd" clip-rule="evenodd" d="M0 13.3784C0 5.98972 5.44027 0 12.1512 0H82.8488C89.5598 0 95 5.98972 95 13.3784V62.027C95 69.4158 89.5598 75.4054 82.8488 75.4054H57.2806L60.5945 82.7027H69.593C71.4232 82.7027 72.907 84.3363 72.907 86.3513C72.907 88.3664 71.4232 90 69.593 90H25.407C23.5767 90 22.093 88.3664 22.093 86.3513C22.093 84.3363 23.5767 82.7027 25.407 82.7027H34.4053L37.7193 75.4054H12.1512C5.44027 75.4054 0 69.4158 0 62.027V13.3784ZM82.8488 68.1081H12.1512C9.10073 68.1081 6.62791 65.3857 6.62791 62.027V13.3784C6.62791 10.0199 9.10073 7.2973 12.1512 7.2973H82.8488C85.8994 7.2973 88.3721 10.0199 88.3721 13.3784V62.027C88.3721 65.3857 85.8994 68.1081 82.8488 68.1081Z" fill="#E67FEF"/>
</svg>
