<svg width="32" height="32" viewBox="0 0 32 32" fill="none" xmlns="http://www.w3.org/2000/svg">
<path d="M16 31C24.2845 31 31 24.2845 31 16C31 7.7155 24.2845 1 16 1C7.7155 1 1 7.7155 1 16C1 24.2845 7.7155 31 16 31Z" stroke="white" stroke-width="2" stroke-linecap="round" stroke-linejoin="round"/>
<path d="M19.4995 26.5V23.7055C19.537 23.2405 19.4725 22.7755 19.3105 22.336C19.1474 21.8962 18.8916 21.4967 18.5605 21.1645C21.7 20.824 25 19.6645 25 14.3485C25 12.9895 24.463 11.6815 23.5 10.6975C23.9562 9.50965 23.9238 8.18954 23.41 7.02548C23.41 7.02548 22.2295 6.68498 19.4995 8.46698C17.2057 7.86227 14.7943 7.86227 12.5005 8.46698C9.77046 6.68498 8.58996 7.02698 8.58996 7.02698C8.07693 8.19018 8.04457 9.50903 8.49996 10.696C7.53473 11.677 6.99567 12.9993 6.99996 14.3755C6.99996 19.654 10.3 20.812 13.4395 21.1915C13.1119 21.5208 12.8583 21.916 12.6955 22.351C12.5338 22.7827 12.4673 23.2442 12.5005 23.704V26.5" stroke="white" stroke-width="2" stroke-linecap="round" stroke-linejoin="round"/>
<path d="M12.5005 24.553C9.5005 25.4995 7 24.553 5.5 21.631" stroke="white" stroke-width="2" stroke-linecap="round" stroke-linejoin="round"/>
</svg>
